<?xml version="1.0" encoding="UTF-8" standalone="no"?>
<svg
   xmlns:dc="http://purl.org/dc/elements/1.1/"
   xmlns:cc="http://creativecommons.org/ns#"
   xmlns:rdf="http://www.w3.org/1999/02/22-rdf-syntax-ns#"
   xmlns:svg="http://www.w3.org/2000/svg"
   xmlns="http://www.w3.org/2000/svg"
   xmlns:sodipodi="http://sodipodi.sourceforge.net/DTD/sodipodi-0.dtd"
   xmlns:inkscape="http://www.inkscape.org/namespaces/inkscape"
   sodipodi:docname="linkedin.svg"
   inkscape:version="1.0 (4035a4fb49, 2020-05-01)"
   id="svg2128"
   version="1.1"
   viewBox="0 0 6.3499999 6.3499999"
   height="6.3499999mm"
   width="6.3499999mm">
  <defs
     id="defs2122" />
  <sodipodi:namedview
     inkscape:window-maximized="1"
     inkscape:window-y="27"
     inkscape:window-x="0"
     inkscape:window-height="1376"
     inkscape:window-width="2560"
     fit-margin-bottom="0"
     fit-margin-right="0"
     fit-margin-left="0"
     fit-margin-top="0"
     showgrid="false"
     inkscape:document-rotation="0"
     inkscape:current-layer="layer1"
     inkscape:document-units="mm"
     inkscape:cy="15.207432"
     inkscape:cx="17.749345"
     inkscape:zoom="31.678384"
     inkscape:pageshadow="2"
     inkscape:pageopacity="0.0"
     borderopacity="1.0"
     bordercolor="#666666"
     pagecolor="#ffffff"
     id="base" />
  <metadata
     id="metadata2125">
    <rdf:RDF>
      <cc:Work
         rdf:about="">
        <dc:format>image/svg+xml</dc:format>
        <dc:type
           rdf:resource="http://purl.org/dc/dcmitype/StillImage" />
        <dc:title></dc:title>
      </cc:Work>
    </rdf:RDF>
  </metadata>
  <g
     transform="translate(-166.91436,-126.09308)"
     id="layer1"
     inkscape:groupmode="layer"
     inkscape:label="Ebene 1">
    <path
       transform="scale(0.26458333)"
       d="m 632.18164,476.57227 c -0.731,0 -1.32422,0.59322 -1.32422,1.32421 v 21.35157 c 0,0.73202 0.59322,1.32422 1.32422,1.32422 h 21.35156 c 0.733,0 1.32422,-0.5922 1.32422,-1.32422 v -21.35157 c 0,-0.73099 -0.5922,-1.32421 -1.32422,-1.32421 z m 4.17578,3.25195 c 1.36127,0 2.46485,1.10357 2.46485,2.46484 0,1.36127 -1.1035,2.46485 -2.46485,2.46485 -1.36127,0 -2.46484,-1.10358 -2.46484,-2.46485 0,-1.36127 1.10357,-2.46484 2.46484,-2.46484 z m 11.0332,5.77148 c 4.45815,0 4.43165,4.1647 4.43165,6.45313 v 5.26367 c 0,0.30954 -0.25108,0.56055 -0.56055,0.56055 h -2.7832 c -0.30955,0 -0.56055,-0.25074 -0.56055,-0.56055 v -5.10156 c 0,-0.76109 0.22158,-3.33399 -1.99024,-3.33399 -1.7159,0 -2.06292,1.76206 -2.13281,2.55274 v 5.88281 c 0,0.30954 -0.25108,0.56055 -0.56054,0.56055 h -2.69336 c -0.30955,0 -0.56055,-0.25074 -0.56055,-0.56055 v -10.97461 c 0,-0.30954 0.25074,-0.55859 0.56055,-0.55859 h 2.69336 c 0.30954,0 0.56054,0.24909 0.56054,0.55859 v 0.94922 c 0.63621,-0.95482 1.5825,-1.69141 3.5957,-1.69141 z m -12.33203,0.1836 h 2.59571 c 0.33675,0 0.60937,0.27315 0.60937,0.60937 v 10.875 c 0,0.33676 -0.27315,0.60938 -0.60937,0.60938 h -2.59571 c -0.33675,0 -0.60937,-0.27315 -0.60937,-0.60938 v -10.875 c 0,-0.33675 0.27307,-0.60937 0.60937,-0.60937 z"
       style="stroke-width:0.999999"
       id="path912" />
  </g>
</svg>
