<?xml version="1.0" encoding="UTF-8" standalone="no"?>
<svg
   xmlns:dc="http://purl.org/dc/elements/1.1/"
   xmlns:cc="http://creativecommons.org/ns#"
   xmlns:rdf="http://www.w3.org/1999/02/22-rdf-syntax-ns#"
   xmlns:svg="http://www.w3.org/2000/svg"
   xmlns="http://www.w3.org/2000/svg"
   xmlns:sodipodi="http://sodipodi.sourceforge.net/DTD/sodipodi-0.dtd"
   xmlns:inkscape="http://www.inkscape.org/namespaces/inkscape"
   sodipodi:docname="xing.svg"
   inkscape:version="1.0 (4035a4fb49, 2020-05-01)"
   id="svg1498"
   version="1.1"
   viewBox="0 0 6.3499999 6.3499999"
   height="6.3499999mm"
   width="6.3499999mm">
  <defs
     id="defs1492" />
  <sodipodi:namedview
     inkscape:window-maximized="1"
     inkscape:window-y="27"
     inkscape:window-x="0"
     inkscape:window-height="1376"
     inkscape:window-width="2560"
     fit-margin-bottom="0"
     fit-margin-right="0"
     fit-margin-left="0"
     fit-margin-top="0"
     showgrid="false"
     inkscape:document-rotation="0"
     inkscape:current-layer="layer1"
     inkscape:document-units="mm"
     inkscape:cy="22.191821"
     inkscape:cx="21.926049"
     inkscape:zoom="22.4"
     inkscape:pageshadow="2"
     inkscape:pageopacity="0.0"
     borderopacity="1.0"
     bordercolor="#666666"
     pagecolor="#ffffff"
     id="base" />
  <metadata
     id="metadata1495">
    <rdf:RDF>
      <cc:Work
         rdf:about="">
        <dc:format>image/svg+xml</dc:format>
        <dc:type
           rdf:resource="http://purl.org/dc/dcmitype/StillImage" />
        <dc:title></dc:title>
      </cc:Work>
    </rdf:RDF>
  </metadata>
  <g
     transform="translate(-403.52731,-8.9203857)"
     id="layer1"
     inkscape:groupmode="layer"
     inkscape:label="Ebene 1">
    <path
       transform="scale(0.26458333)"
       d="m 1526.4668,33.714844 c -0.731,0 -1.3242,0.593219 -1.3242,1.324218 v 21.351563 c 0,0.732 0.5932,1.324219 1.3242,1.324219 h 21.3516 c 0.733,0 1.3242,-0.592219 1.3242,-1.324219 V 35.039062 c 0,-0.730999 -0.5922,-1.324218 -1.3242,-1.324218 z m 15.4629,3.169922 h 2.6426 c 0.1564,0 0.2819,0.05966 0.3496,0.166015 0.068,0.11229 0.065,0.257596 -0.012,0.402344 v 0 l -5.793,10.214844 c 0,0.0057 0,0.01191 0,0.01758 l 3.6894,6.724609 c 0.074,0.144756 0.074,0.292049 0,0.404297 -0.068,0.106356 -0.1882,0.166016 -0.3477,0.166016 h -2.6152 c -0.4018,0 -0.6015,-0.265656 -0.7286,-0.496094 0,0 -3.7079,-6.786962 -3.7168,-6.804687 0.1864,-0.32795 5.8223,-10.298829 5.8223,-10.298829 0.1391,-0.251111 0.3113,-0.496093 0.7012,-0.496093 z m -10.9961,3.572265 h 2.6191 c 0.4018,0 0.5956,0.256822 0.7285,0.490235 0,0 1.787,3.11118 1.7989,3.128906 -0.1066,0.186104 -2.8242,4.984375 -2.8242,4.984375 -0.1325,0.238883 -0.3215,0.500996 -0.7129,0.501953 0,0 0,0 0,0 h -2.6172 c -0.1564,0 -0.2737,-0.07138 -0.3418,-0.177734 -0.068,-0.11229 -0.074,-0.257596 0,-0.402344 l 2.7793,-4.890625 c 0,-0.0057 0,-0.01 0,-0.01563 l -1.7695,-3.054688 c -0.074,-0.144756 -0.083,-0.290065 -0.016,-0.402343 0.068,-0.109304 0.1975,-0.16211 0.3574,-0.16211 z"
       style="stroke-width:0.999999"
       id="path912" />
  </g>
</svg>
