<?xml version="1.0" encoding="UTF-8" standalone="no"?>
<svg
   xmlns:dc="http://purl.org/dc/elements/1.1/"
   xmlns:cc="http://creativecommons.org/ns#"
   xmlns:rdf="http://www.w3.org/1999/02/22-rdf-syntax-ns#"
   xmlns:svg="http://www.w3.org/2000/svg"
   xmlns="http://www.w3.org/2000/svg"
   xmlns:sodipodi="http://sodipodi.sourceforge.net/DTD/sodipodi-0.dtd"
   xmlns:inkscape="http://www.inkscape.org/namespaces/inkscape"
   sodipodi:docname="dita-logo.svg"
   inkscape:version="1.0 (4035a4fb49, 2020-05-01)"
   version="1.1"
   id="svg2"
   viewBox="0 0 224.99999 178.12499"
   height="190"
   width="240">
  <defs
     id="defs4" />
  <sodipodi:namedview
     units="px"
     inkscape:document-rotation="0"
     inkscape:window-maximized="1"
     inkscape:window-y="27"
     inkscape:window-x="0"
     inkscape:window-height="1016"
     inkscape:window-width="1920"
     fit-margin-bottom="0"
     fit-margin-right="0"
     fit-margin-left="0"
     fit-margin-top="0"
     showgrid="false"
     inkscape:current-layer="layer3"
     inkscape:document-units="px"
     inkscape:cy="110.96427"
     inkscape:cx="186.66935"
     inkscape:zoom="2.0458902"
     inkscape:pageshadow="2"
     inkscape:pageopacity="0.0"
     borderopacity="1.0"
     bordercolor="#666666"
     pagecolor="#ffffff"
     id="base" />
  <metadata
     id="metadata7">
    <rdf:RDF>
      <cc:Work
         rdf:about="">
        <dc:format>image/svg+xml</dc:format>
        <dc:type
           rdf:resource="http://purl.org/dc/dcmitype/StillImage" />
        <dc:title></dc:title>
      </cc:Work>
    </rdf:RDF>
  </metadata>
  <g
     transform="translate(971.57112,-555.71797)"
     style="display:inline"
     inkscape:label="&lt;dita&gt;"
     id="layer3"
     inkscape:groupmode="layer">
    <path
       inkscape:connector-curvature="0"
       id="path4203-3"
       d="m -917.50549,680.59699 c -1.15324,-0.12293 -3.38287,-0.54749 -3.68444,-0.70159 -0.18638,-0.0952 -0.53385,-0.21462 -0.77215,-0.26532 -0.6763,-0.14386 -2.56632,-1.17052 -3.45118,-1.87469 -2.86225,-2.27776 -4.32532,-5.0603 -4.72898,-8.99382 -0.29696,-2.89384 0.63362,-6.59137 2.25806,-8.97208 0.90863,-1.33163 2.83676,-3.21257 4.0513,-3.95216 2.32945,-1.41851 4.55703,-2.0169 7.51051,-2.01753 2.75693,-7.5e-4 4.69403,0.43328 7.22066,1.61728 1.16443,0.54569 1.6324,0.60181 1.99495,0.23926 0.23414,-0.23416 0.24759,-0.41266 0.24759,-3.28671 0,-3.30003 -0.0495,-3.58315 -0.67581,-3.86853 -0.17764,-0.0809 -0.83412,-0.20507 -1.45883,-0.27584 -1.90763,-0.21609 -2.16389,-0.33464 -2.57958,-1.19334 -0.56151,-1.15993 -0.0626,-2.91144 0.94987,-3.33446 0.93248,-0.38963 8.22073,-0.50804 8.68516,-0.14111 0.12227,0.0966 0.15476,3.24706 0.15476,15.00762 0,14.88313 3e-5,14.88542 0.25718,15.21233 0.36863,0.46863 0.56529,0.54516 1.79303,0.69772 1.48058,0.18399 2.16814,0.55661 2.59033,1.40382 0.39026,0.78318 0.39524,1.44489 0.0169,2.24716 -0.55745,1.1821 -1.03863,1.42343 -2.83956,1.42415 -0.69345,2.4e-4 -2.03462,0.0591 -2.98036,0.13062 -2.08117,0.1575 -3.11953,0.0306 -4.12058,-0.50359 -0.80185,-0.42789 -1.33521,-0.40895 -2.26743,0.0805 -0.30585,0.16059 -0.65342,0.29198 -0.77239,0.29198 -0.11896,0 -0.50935,0.11245 -0.86755,0.24991 -1.35037,0.51819 -4.9491,0.94709 -6.53147,0.77843 z m 3.73037,-5.34439 c 2.05387,-0.44882 3.48473,-1.18809 4.7764,-2.46779 3.93145,-3.895 2.2676,-10.46766 -3.33205,-13.16244 -2.88756,-1.38961 -5.85543,-1.15536 -8.76103,0.69149 -2.06895,1.31507 -3.77635,4.00568 -4.10412,6.46749 -0.62993,4.73124 3.42819,8.62302 9.05844,8.68719 0.86531,0.01 1.66258,-0.063 2.36236,-0.21594 z m 90.22953,5.30216 c -2.14665,-0.2752 -3.83047,-0.79728 -4.88988,-1.51616 -0.27235,-0.1848 -0.69343,-0.46946 -0.93575,-0.63257 -0.42464,-0.28585 -1.33541,-1.27849 -2.0001,-2.17984 -0.4789,-0.64944 -0.96367,-2.32638 -0.96367,-3.33362 0,-1.25601 0.55639,-2.94542 1.36026,-4.13021 1.71815,-2.53229 4.27944,-4.13474 7.97914,-4.99209 1.36324,-0.31591 1.38813,-0.31702 6.11389,-0.2751 4.62637,0.041 4.74971,0.0359 4.92948,-0.20548 0.26514,-0.35601 0.12751,-1.06111 -0.42285,-2.16641 -0.62781,-1.26081 -1.28064,-1.75236 -2.78831,-2.09949 -1.92313,-0.44279 -4.34095,-0.27384 -8.01083,0.55977 -0.66824,0.15179 -1.54713,0.21496 -3.13589,0.2254 -2.54758,0.0167 -2.44941,0.06 -2.94517,-1.29963 -0.1615,-0.44293 -0.4178,-0.86244 -0.64231,-1.05137 -0.35618,-0.29969 -0.48856,-0.31467 -0.98283,-0.11121 -0.37988,0.15639 -0.25461,-0.35724 0.38897,-1.59487 0.97848,-1.88171 2.19815,-3.60482 3.21445,-4.54128 0.50575,-0.46602 1.76111,-1.44519 2.7897,-2.17596 3.37616,-2.39863 4.1359,-3.04669 5.11859,-4.36622 0.83001,-1.11452 1.27577,-2.05218 1.30325,-2.74147 0.0268,-0.67207 -0.37299,-1.03316 -1.35964,-1.22799 -0.39389,-0.0778 -1.0504,-0.24859 -1.45892,-0.37958 -0.40852,-0.131 -1.04917,-0.29326 -1.42364,-0.36059 -0.65107,-0.11705 -1.3434,-0.31707 -3.30135,-0.95373 -0.48804,-0.1587 -0.96875,-0.28854 -1.06823,-0.28854 -0.18312,0 -1.12117,-0.39018 -2.2552,-0.93805 -0.3414,-0.16495 -0.65603,-0.2999 -0.69915,-0.2999 -0.11374,0 -1.6708,-0.94963 -2.39392,-1.46004 -0.97244,-0.68637 -2.38117,-2.11051 -3.02536,-3.05845 -0.32389,-0.47661 -0.99381,-1.64647 -1.48873,-2.59968 -1.67887,-3.23356 -1.5515,-3.06732 -3.34686,-4.36799 -1.47596,-1.06928 -2.77482,-2.10655 -3.59003,-2.86694 -1.87849,-1.75223 -2.69488,-2.14013 -4.82798,-2.29402 -1.44539,-0.10427 -2.34729,-0.2863 -2.36687,-0.4777 -0.0548,-0.53555 0.0605,-1.65626 0.18357,-1.78415 0.11439,-0.11887 0.43057,-0.12668 1.38243,-0.0341 1.40771,0.13685 3.40718,0.16356 3.7045,0.0495 0.2539,-0.0974 0.56262,-0.68654 0.56262,-1.07362 0,-0.16295 -0.11142,-0.62009 -0.24759,-1.01588 -0.13618,-0.3958 -0.24759,-0.87541 -0.24759,-1.06581 0,-0.43767 -0.22622,-0.94211 -0.46331,-1.03308 -0.36129,-0.13865 -1.10172,0.18591 -1.82857,0.80154 -0.4076,0.34522 -0.88035,0.70165 -1.05058,0.79206 -0.17021,0.0904 -0.61587,0.33757 -0.99035,0.54924 -0.37447,0.21166 -0.74293,0.38585 -0.81879,0.38708 -0.0758,0.001 -0.23738,-0.25818 -0.35895,-0.57649 -0.22101,-0.57872 -0.22101,-0.57872 0.13793,-0.86844 0.19742,-0.15934 0.91602,-0.46095 1.59688,-0.67025 1.58259,-0.48647 1.79503,-0.62166 1.79503,-1.14232 0,-0.55819 -0.14418,-0.69976 -1.42364,-1.3979 -0.61278,-0.33437 -1.28127,-0.70347 -1.48553,-0.82022 -0.76598,-0.43783 -1.20136,-0.59671 -1.4334,-0.52307 -0.4434,0.14074 -0.93977,0.66303 -1.58083,1.66338 -0.35074,0.54731 -0.91624,1.43007 -1.25668,1.9617 -0.49571,0.77409 -0.61897,1.07205 -0.61897,1.49624 0,0.47715 -0.0722,0.60531 -0.72803,1.29267 -0.40042,0.41965 -0.87595,1.05761 -1.05675,1.41769 -0.36525,0.72742 -0.68501,0.91833 -1.35578,0.80948 -0.49705,-0.0807 -0.61784,-0.27858 -0.44594,-0.73071 0.0662,-0.17416 0.2022,-0.70904 0.30221,-1.18865 0.1,-0.4796 0.23197,-0.93549 0.29328,-1.01308 0.0613,-0.0776 0.18209,-0.36389 0.26839,-0.63624 0.0863,-0.27235 0.46709,-1.10796 0.84617,-1.85691 3.07053,-6.06655 9.42801,-10.99927 16.79367,-13.03011 0.89858,-0.24774 1.50381,-0.31944 3.12793,-0.37052 1.83075,-0.0576 2.17392,-0.0328 3.77574,0.27232 3.4358,0.65452 5.94028,1.1895 6.96975,1.48878 0.36629,0.10648 1.29413,0.35734 2.06188,0.55747 0.76775,0.20012 2.34293,0.70949 3.50041,1.13192 2.06249,0.75272 2.12922,0.76797 3.34245,0.76403 0.7771,-0.003 1.68764,-0.10079 2.44597,-0.26398 2.9881,-0.64304 8.77404,-0.62635 12.49403,0.036 0.90663,0.16143 2.17766,0.33111 2.82448,0.37706 0.64683,0.0459 1.37102,0.13674 1.60933,0.20175 0.23831,0.065 2.60587,0.2826 5.26126,0.48353 5.73457,0.43393 7.26476,0.5823 7.69565,0.74612 0.1769,0.0672 0.57891,0.17594 0.89337,0.24152 0.31446,0.0656 1.51879,0.42276 2.67626,0.79373 2.21835,0.71098 3.80906,1.09557 5.44695,1.31693 4.86166,0.65705 8.99364,0.50137 15.41239,-0.5807 2.93566,-0.4949 13.37928,-0.0861 14.01392,0.54848 0.2126,0.21262 -0.0231,0.63989 -0.85721,1.55395 -1.18655,1.3003 -2.46345,2.40836 -3.83413,3.32722 -1.60808,1.07802 -2.0383,1.27985 -3.20298,1.50259 -0.54017,0.1033 -1.34423,0.26994 -1.78679,0.3703 -0.44257,0.10036 -1.33388,0.21846 -1.98071,0.26244 -1.29047,0.0878 -5.12346,0.62008 -5.82992,0.80966 -0.31075,0.0834 -0.7571,0.43693 -1.48047,1.17259 -0.63666,0.64749 -1.52868,1.37504 -2.31561,1.88869 -2.46686,1.61017 -4.18251,2.77735 -4.79604,3.26284 -0.34043,0.26939 -1.31531,0.95604 -2.16641,1.5259 -2.14667,1.43735 -2.82591,2.01953 -4.29536,3.68155 -1.42526,1.61205 -3.11562,3.07034 -5.60818,4.83823 -4.04087,2.86607 -3.95958,2.81173 -5.18027,3.46295 -0.52115,0.27803 -1.14153,0.63606 -1.37861,0.79562 -0.23709,0.15957 -0.48028,0.29012 -0.54044,0.29012 -0.0601,0 -0.48644,0.2507 -0.94731,0.55709 -0.46087,0.30639 -0.88873,0.55707 -0.9508,0.55707 -0.0621,0 -0.50713,0.2431 -0.98907,0.54023 -0.98228,0.60561 -0.97328,0.60072 -3.19705,1.73744 -0.88483,0.45228 -1.77615,0.87297 -1.98071,0.93483 -0.69087,0.20899 -1.97983,0.77579 -2.19497,0.96522 -0.11756,0.10349 -0.44442,0.77957 -0.72639,1.50241 -1.02422,2.62567 -1.44795,3.22937 -2.67695,3.81396 -0.79612,0.3787 -1.00538,0.4249 -1.91882,0.42367 -0.98405,-0.002 -1.39686,-0.0585 -2.75835,-0.38202 -0.58926,-0.14002 -0.67543,-0.12518 -1.79501,0.30918 -0.64682,0.25093 -1.42673,0.53934 -1.73312,0.64089 -0.30639,0.10154 -0.7242,0.25986 -0.92846,0.35181 -1.1952,0.53806 -1.84662,0.79648 -2.44952,0.97174 -0.72458,0.21065 -1.07861,0.57425 -1.07861,1.10777 0,0.44133 0.43516,0.55494 2.41399,0.63021 1.43989,0.0548 1.90688,0.12328 2.76024,0.40493 0.8841,0.29179 1.12066,0.43432 1.69854,1.02336 1.6255,1.65685 3.53638,4.42398 4.00695,5.80241 0.32359,0.94786 0.32359,0.94786 0.38552,7.52104 0.0679,7.20359 0.0276,6.85107 0.82,7.1823 0.21268,0.0889 0.76975,0.22052 1.23794,0.29249 1.42113,0.21845 2.20446,0.56694 2.60674,1.15966 0.31319,0.46145 0.34884,0.61847 0.34723,1.52929 -0.002,0.95681 -0.023,1.03721 -0.37138,1.40136 -0.20327,0.21247 -0.53671,0.48897 -0.74097,0.61445 -0.55533,0.34114 -2.79244,0.52164 -5.89122,0.47533 -2.67258,-0.0399 -2.67258,-0.0399 -3.18611,-0.39611 -0.62168,-0.43117 -1.3518,-0.45974 -2.19677,-0.086 -0.30793,0.13622 -0.88983,0.3075 -1.29314,0.38063 -0.40333,0.0731 -0.92927,0.21485 -1.16877,0.31492 -0.2395,0.10007 -0.86786,0.2386 -1.39636,0.30784 -0.52849,0.0692 -1.21158,0.17707 -1.51797,0.23964 -0.84354,0.17227 -2.93232,0.23939 -3.83762,0.12333 z m 3.57291,-5.32107 c 1.55109,-0.25307 2.60901,-0.54556 3.87022,-1.07002 0.383,-0.15926 0.75755,-0.28957 0.83235,-0.28957 0.12759,0 1.20985,-0.51663 2.29276,-1.09451 0.91777,-0.48974 0.94463,-0.54364 0.94463,-1.89573 0,-1.31815 -0.1414,-1.64135 -0.77057,-1.76139 -2.24496,-0.4283 -3.59139,-0.57152 -5.37266,-0.57152 -1.08182,0 -2.16154,0.0583 -2.39939,0.12965 -0.23786,0.0713 -0.85379,0.20615 -1.36874,0.29964 -1.14881,0.20856 -2.74382,0.94815 -3.84887,1.7847 -1.51943,1.15024 -1.68281,1.66627 -0.85792,2.70984 1.04344,1.32006 1.61308,1.61613 3.60516,1.87378 1.23491,0.15973 1.43616,0.1522 3.07303,-0.11487 z m -3.07773,-23.838 c 0.29423,-0.1538 1.76752,-0.79139 2.97106,-1.28576 0.30639,-0.12585 0.91917,-0.35295 1.36174,-0.50468 0.44256,-0.15172 2.14164,-0.73222 3.77573,-1.29 3.20528,-1.09409 3.57608,-1.25218 3.97587,-1.69509 0.34247,-0.3794 0.7902,-1.7449 0.7902,-2.40999 0,-0.45185 -0.22649,-0.91327 -0.44827,-0.91327 -0.11452,0 -0.86067,0.40709 -1.72268,0.93986 -1.11441,0.68878 -2.7082,1.15758 -4.33919,1.27636 -1.36795,0.0996 -1.67107,0.22583 -2.83633,1.1811 -0.34043,0.27908 -0.95321,0.75506 -1.36173,1.05775 -0.40852,0.30267 -0.97203,0.74717 -1.25225,0.98775 -0.28021,0.24058 -0.88105,0.73488 -1.33522,1.09846 -0.95209,0.76219 -1.2412,1.14352 -1.13077,1.49145 0.12532,0.39486 0.8628,0.42626 1.55184,0.0661 z m 16.75951,-5.78688 c 0.40924,-0.43633 1.19005,-2.49624 1.19135,-3.14291 10e-4,-0.60323 0.24968,-1.26961 0.54572,-1.46359 0.15761,-0.10326 0.67729,-0.29604 1.15485,-0.42838 0.47756,-0.13233 1.28372,-0.42993 1.79146,-0.66132 0.50775,-0.23138 1.13214,-0.48966 1.38754,-0.57395 0.9461,-0.31224 3.29644,-1.62707 4.47384,-2.50274 0.34461,-0.25631 0.87247,-0.55277 1.17298,-0.6588 0.51512,-0.18174 2.61274,-1.26469 3.1522,-1.62743 0.13617,-0.0915 0.97178,-0.6483 1.85691,-1.23723 0.88513,-0.58893 2.11069,-1.44327 2.72347,-1.89856 0.61279,-0.45528 1.79135,-1.30874 2.61903,-1.89656 1.34024,-0.95187 1.6669,-1.26283 2.9858,-2.84249 1.79189,-2.14616 2.19516,-2.50665 4.04788,-3.61831 0.79431,-0.47662 2.09487,-1.36888 2.89013,-1.98282 2.08361,-1.60857 3.28658,-2.42699 4.44968,-3.02737 1.12339,-0.57987 1.94615,-1.3747 2.44787,-2.36482 0.48236,-0.95187 0.84954,-1.17695 2.07338,-1.27102 0.57897,-0.0445 1.79664,-0.19273 2.70596,-0.3294 0.90931,-0.13666 2.40535,-0.33334 3.32452,-0.43707 2.78531,-0.31434 4.38909,-0.61484 4.871,-0.91268 1.05544,-0.65229 1.52646,-1.89322 0.87952,-2.31712 -0.28027,-0.18363 -0.59588,-0.19692 -2.8331,-0.11925 -1.38473,0.0481 -2.87224,0.14056 -3.30559,0.20553 -0.43334,0.065 -1.2614,0.17667 -1.84013,0.24825 -2.0976,0.25938 -3.79588,0.47447 -4.76609,0.60362 -0.54469,0.0725 -1.30444,0.16236 -1.68832,0.19968 -0.38389,0.0373 -0.78632,0.13425 -0.89428,0.21541 -0.10796,0.0812 -0.34117,0.70463 -0.51825,1.3855 -0.60793,2.33747 -1.12162,2.76398 -5.5338,4.59456 -0.3915,0.16243 -1.03214,0.42838 -1.42364,0.59101 -0.39149,0.16263 -1.21318,0.50065 -1.82595,0.75115 -1.19498,0.48852 -4.10764,1.97865 -5.32317,2.72333 -0.78123,0.47864 -4.19692,2.17195 -4.38116,2.17195 -0.0591,0 -0.43446,0.14304 -0.83419,0.31785 -1.36464,0.59678 -1.84198,0.77134 -3.82164,1.39762 -2.10839,0.667 -3.536,1.05961 -5.63264,1.54902 -0.71491,0.16688 -1.91262,0.44791 -2.66157,0.62451 -0.74896,0.17661 -1.64028,0.35712 -1.9807,0.40114 -0.34045,0.044 -1.06464,0.28872 -1.60934,0.54376 -1.496,0.70047 -3.1524,1.34854 -5.94213,2.32495 -3.33057,1.1657 -5.29591,1.27812 -7.44319,0.42578 -1.53571,-0.60958 -3.26501,-1.83646 -3.26501,-2.3164 0,-0.27281 1.20519,-1.55439 1.46174,-1.55439 0.0632,0 0.58179,0.3135 1.15251,0.69667 1.65189,1.10908 2.48802,1.45905 3.44782,1.44312 0.46731,-0.008 1.09584,-0.11803 1.48937,-0.2613 0.37448,-0.13633 1.60005,-0.53804 2.72348,-0.89269 1.9246,-0.60756 4.8092,-1.71303 5.85586,-2.24416 0.64207,-0.32582 1.94065,-0.63597 5.05905,-1.20828 2.1592,-0.39626 3.0355,-0.62401 4.80698,-1.2493 1.19151,-0.42057 2.61205,-0.89153 3.15675,-1.04659 2.23044,-0.63491 4.08278,-1.43494 6.2259,-2.68897 0.61756,-0.36137 1.41913,-0.8207 1.78127,-1.02074 0.85075,-0.46995 4.81435,-2.32916 6.72436,-3.15419 0.81704,-0.35292 1.89591,-0.81992 2.3975,-1.03778 1.08978,-0.47331 1.62581,-0.92639 1.62581,-1.37422 0,-0.51953 -0.36761,-0.76806 -1.35229,-0.9142 -1.07658,-0.15978 -1.43913,-0.37707 -1.69464,-1.01564 -0.2493,-0.62308 -0.47634,-0.69233 -2.8333,-0.8641 -3.22384,-0.23495 -3.16281,-0.22304 -3.61807,-0.70577 -0.22288,-0.23631 -0.40524,-0.4694 -0.40524,-0.51796 0,-0.37391 -2.21125,-0.95918 -4.27091,-1.13045 -0.68087,-0.0566 -2.07356,-0.19149 -3.09486,-0.29973 -1.0213,-0.10826 -3.08248,-0.27667 -4.58039,-0.37425 -2.68404,-0.17485 -4.13577,-0.33729 -7.30387,-0.81728 -2.64337,-0.40049 -3.5199,-0.47941 -6.27966,-0.56541 -4.66715,-0.14543 -6.01708,0.14798 -7.5853,1.64866 -0.40852,0.39094 -1.63408,1.57624 -2.72348,2.63399 -3.09752,3.00763 -4.513,4.04628 -7.40748,5.43545 -1.4863,0.71332 -2.25223,1.37564 -2.7183,2.35051 -0.26879,0.56222 -0.28588,0.57341 -1.12397,0.73675 -0.74697,0.14556 -0.87423,0.14265 -1.04065,-0.0237 -0.1637,-0.16371 -0.16941,-0.3131 -0.0418,-1.0943 0.1875,-1.14758 0.72928,-2.321 1.26921,-2.74902 0.22915,-0.18167 1.05772,-0.62459 1.84125,-0.98426 1.8152,-0.83329 2.39032,-1.16763 3.83666,-2.23036 1.29711,-0.95309 2.18107,-1.69965 3.49245,-2.94955 0.76249,-0.72676 0.87641,-0.89385 0.92841,-1.36174 0.075,-0.67531 -0.21527,-0.97814 -1.26617,-1.3208 -0.40738,-0.13283 -1.21422,-0.41505 -1.79295,-0.62711 -0.57874,-0.21209 -1.35864,-0.46472 -1.73312,-0.56141 -0.37448,-0.0967 -1.15439,-0.32222 -1.73312,-0.50115 -1.47987,-0.45754 -3.99838,-1.02155 -5.81834,-1.30298 -0.85108,-0.13161 -1.85382,-0.30574 -2.2283,-0.38694 -0.37447,-0.0812 -1.40506,-0.15174 -2.29019,-0.15669 -1.37241,-0.008 -1.80289,0.041 -2.9242,0.33095 -3.52923,0.91256 -6.51827,2.59214 -8.46487,4.75648 -1.82184,2.02564 -1.88204,2.71341 -0.30706,3.50846 0.73243,0.36972 2.51371,1.78603 3.36668,2.67685 0.45996,0.48035 0.45996,0.48035 0.51665,1.9041 0.0922,2.31521 0.40949,2.88088 3.01607,5.37663 1.45483,1.39299 2.65362,2.24188 4.2653,3.0204 1.56994,0.75834 1.61047,0.80188 1.82635,1.96189 0.1244,0.66846 0.54169,1.76066 1.07872,2.82339 1.4009,2.77216 3.56184,4.87067 6.41575,6.23041 0.88791,0.42305 4.29766,1.54761 6.25187,2.06193 1.97067,0.51866 6.32802,1.44082 8.17017,1.72908 1.7313,0.27093 3.21249,0.53315 4.2846,0.75853 1.48352,0.31187 1.69419,0.71913 1.67774,3.24311 -0.0111,1.71405 0.0847,2.33594 0.38987,2.53001 0.27479,0.17472 0.48849,0.098 0.87515,-0.3143 z m -37.89496,-35.49341 c 0.0951,-1.04924 0.17365,-1.11191 1.37445,-1.09718 1.70198,0.0209 2.00252,0.23692 1.31205,0.94314 -0.56092,0.57373 -1.32261,0.90143 -2.0953,0.90143 -0.65898,0 -0.65898,0 -0.5912,-0.74739 z m -29.37264,69.86613 c -0.57874,-0.0177 -2.61206,-0.0894 -4.51849,-0.15948 -1.90644,-0.0701 -4.87679,-0.13647 -6.6008,-0.14761 -4.04523,-0.0261 -4.94585,-0.10457 -5.46757,-0.47606 -0.51202,-0.36459 -0.98915,-1.37778 -0.99073,-2.10384 -0.002,-0.80735 0.49508,-1.7185 1.14853,-2.10629 0.52149,-0.30948 0.52149,-0.30948 4.85429,-0.37138 4.43335,-0.0633 4.75947,-0.10057 4.93721,-0.56376 0.0421,-0.10959 0.0773,-1.40634 0.0783,-2.88166 10e-4,-1.47532 0.0565,-4.51095 0.12324,-6.74585 0.0804,-2.69067 0.0798,-4.14116 -0.002,-4.29347 -0.0677,-0.12651 -0.2485,-0.27031 -0.40177,-0.31954 -0.15327,-0.0492 -1.47639,-0.095 -2.94025,-0.10177 -3.05494,-0.014 -3.7777,-0.16185 -4.59472,-0.93962 -0.80781,-0.76904 -0.87369,-1.67647 -0.21937,-3.02171 0.53572,-1.10139 0.54648,-1.10451 3.85047,-1.11287 5.19318,-0.0131 9.14713,0.11985 9.27719,0.31205 0.0904,0.1336 0.0542,13.2328 -0.0507,18.34188 -0.0231,1.12649 0.15064,1.23737 2.10501,1.34318 0.86807,0.047 2.3623,0.0903 3.32055,0.0962 2.06001,0.0127 4.19208,0.29406 4.6255,0.61039 0.63136,0.46083 0.80884,0.847 0.85195,1.85365 0.0349,0.81442 -0.002,1.03084 -0.25619,1.50651 -0.45344,0.84838 -0.76133,0.96901 -2.82388,1.10645 -2.15022,0.14328 -4.86769,0.21853 -6.30605,0.17462 z m -69.63771,-0.70523 c -0.1343,-0.0927 -0.7177,-0.41886 -1.29644,-0.7248 -0.93804,-0.49588 -2.10516,-1.12789 -4.70418,-2.5474 -0.44257,-0.24171 -1.08321,-0.58755 -1.42364,-0.76852 -0.58444,-0.31069 -1.85509,-1.02991 -2.53779,-1.43646 -0.17021,-0.10137 -0.53231,-0.29502 -0.80466,-0.43032 -0.27234,-0.13534 -0.77371,-0.40955 -1.11414,-0.6094 -0.34045,-0.19985 -0.84853,-0.47014 -1.12911,-0.60065 -0.28057,-0.1305 -0.80979,-0.42591 -1.17604,-0.65646 -0.36626,-0.23055 -0.80519,-0.48058 -0.97541,-0.55561 -0.17022,-0.075 -0.94341,-0.50551 -1.71821,-0.95661 -0.77479,-0.45108 -1.44631,-0.82015 -1.49224,-0.82015 -0.0459,0 -0.34446,-0.16549 -0.66339,-0.36775 -0.31893,-0.20226 -0.92869,-0.5594 -1.35503,-0.79366 -2.30692,-1.26759 -4.90105,-2.73743 -5.18896,-2.94009 -0.18073,-0.12721 -0.3757,-0.23223 -0.43328,-0.23336 -0.10937,-0.002 -1.61354,-0.89103 -2.14604,-1.26818 -0.42897,-0.30383 -0.26971,-0.49753 0.92746,-1.12813 0.54456,-0.28684 1.12938,-0.60958 1.29959,-0.71722 0.17022,-0.10764 0.69944,-0.40644 1.17604,-0.66399 0.47661,-0.25754 1.31223,-0.71889 1.85692,-1.02521 1.33799,-0.75246 2.21824,-1.23251 3.29287,-1.79581 0.49605,-0.26003 1.0444,-0.57015 1.21851,-0.68916 0.50174,-0.34292 2.81839,-1.62343 2.93707,-1.62343 0.0591,0 0.3014,-0.13098 0.5385,-0.29106 0.23708,-0.16009 0.79316,-0.48679 1.23573,-0.72599 1.50272,-0.81223 2.16511,-1.18018 2.82177,-1.56748 0.36045,-0.21259 0.68268,-0.38654 0.71605,-0.38654 0.0334,0 1.31361,-0.69635 2.8449,-1.54743 1.53131,-0.85108 2.81798,-1.54742 2.85928,-1.54742 0.0413,0 0.55521,-0.27269 1.14202,-0.60597 1.90667,-1.08286 3.77113,-1.99371 4.081,-1.99371 0.47729,0 1.70735,0.49355 1.99612,0.80092 0.16394,0.17452 0.33879,0.64903 0.46622,1.26532 0.17354,0.83927 0.17937,1.04531 0.0392,1.38377 -0.26671,0.6439 -1.49475,1.56959 -3.59676,2.71124 -0.37448,0.20338 -1.38784,0.76651 -2.25191,1.25137 -0.86409,0.48487 -1.59651,0.88159 -1.62763,0.88159 -0.0311,0 -0.41044,0.21436 -0.84294,0.47634 -0.69244,0.41943 -2.44224,1.38753 -4.5621,2.52406 -0.37447,0.20077 -0.73657,0.40784 -0.80466,0.46016 -0.0681,0.0523 -1.46076,0.83477 -3.09485,1.73881 -2.94311,1.62824 -3.77572,2.20404 -3.77572,2.61113 0,0.36011 0.72607,0.87316 3.03347,2.14349 1.22528,0.67457 2.4803,1.37688 2.78893,1.56069 0.30863,0.18382 0.81,0.45434 1.11414,0.60115 0.30416,0.14681 0.71919,0.36367 0.92229,0.48191 0.2031,0.11824 0.73233,0.41392 1.17605,0.65705 0.44372,0.24316 0.91817,0.50522 1.05435,0.58236 0.13617,0.0771 1.58457,0.87671 3.21865,1.77682 1.63409,0.9001 3.27992,1.83945 3.65742,2.08744 0.3775,0.24801 1.1083,0.68383 1.62401,0.9685 1.83679,1.01392 2.34147,1.74517 2.09925,3.04167 -0.13599,0.72797 -0.37124,1.07486 -1.14219,1.68425 -0.56628,0.44763 -0.69736,0.49648 -1.33218,0.49648 -0.39194,0 -0.81236,-0.0747 -0.94829,-0.16855 z m 150.4754,-0.0997 c -0.37448,-0.1357 -0.77569,-0.33207 -0.8916,-0.43638 -0.28875,-0.25986 -0.50661,-1.40375 -0.44667,-2.34517 0.0621,-0.97485 0.24089,-1.18134 1.83267,-2.11646 0.64726,-0.38024 1.42751,-0.84903 1.7339,-1.04177 0.30639,-0.19272 0.83561,-0.48818 1.17605,-0.65658 0.34044,-0.16839 1.09248,-0.58523 1.67122,-0.92629 0.57874,-0.34107 1.28268,-0.72843 1.56433,-0.8608 0.28165,-0.13237 0.73649,-0.38234 1.01075,-0.55549 0.27428,-0.17314 0.99088,-0.57456 1.59243,-0.89204 0.60157,-0.31748 1.1817,-0.65403 1.28919,-0.74787 0.10749,-0.0938 0.2374,-0.17063 0.28868,-0.17063 0.0513,0 1.21675,-0.62366 2.58993,-1.38593 1.37318,-0.76226 3.04611,-1.6725 3.71761,-2.02275 0.6715,-0.35026 1.40963,-0.78741 1.64029,-0.97145 0.8129,-0.64863 0.46255,-1.26768 -1.22645,-2.16713 -0.58965,-0.314 -2.18609,-1.19762 -3.54769,-1.9636 -1.36158,-0.76597 -2.52519,-1.39269 -2.58579,-1.39269 -0.0606,0 -0.24303,-0.10288 -0.4054,-0.22862 -0.28808,-0.22308 -1.77972,-1.056 -2.77113,-1.54737 -0.27234,-0.13498 -0.57873,-0.31343 -0.68086,-0.39656 -0.10213,-0.0831 -0.6035,-0.36342 -1.11414,-0.62289 -0.51067,-0.25949 -1.01203,-0.53702 -1.11416,-0.61676 -0.10213,-0.0797 -0.6035,-0.36823 -1.11415,-0.64113 -0.51064,-0.2729 -1.57739,-0.86522 -2.37052,-1.31628 -0.79314,-0.45106 -1.49345,-0.8201 -1.55624,-0.8201 -0.19183,0 -1.19121,-1.01953 -1.61519,-1.64775 -0.39562,-0.58621 -0.51317,-1.11507 -0.27991,-1.25924 0.0662,-0.0409 0.22571,-0.30878 0.35457,-0.59533 0.30197,-0.67148 0.66944,-0.99844 1.4795,-1.31636 0.9738,-0.3822 1.27255,-0.33524 2.60752,0.40981 0.65702,0.36668 1.89092,1.02662 2.74201,1.46653 0.85108,0.43991 2.41089,1.27488 3.46624,1.8555 1.05535,0.58062 2.33662,1.27925 2.84727,1.55252 0.88422,0.47315 2.31567,1.25388 3.86906,2.1102 0.39176,0.21597 0.9338,0.5325 1.20453,0.70343 0.27072,0.1709 0.53512,0.31077 0.58754,0.31082 0.0524,5e-5 0.5665,0.2804 1.14242,0.62301 0.57592,0.34261 1.52294,0.88402 2.1045,1.20315 0.58157,0.31913 1.20634,0.66548 1.38838,0.76967 0.18204,0.1042 0.68143,0.37359 1.10973,0.59864 0.4283,0.22504 0.83644,0.45684 0.90695,0.51508 0.0705,0.0582 0.49032,0.29646 0.93289,0.52939 1.69032,0.88965 2.78997,1.48669 2.90917,1.57948 0.0681,0.053 0.62515,0.36105 1.23793,0.68454 1.21012,0.63881 1.35662,0.76892 1.14835,1.01988 -0.13692,0.16497 -1.44632,0.96089 -2.38628,1.45052 -0.27236,0.14186 -1.41436,0.77652 -2.53779,1.41035 -1.12343,0.63384 -2.20973,1.24286 -2.41399,1.35338 -0.20427,0.11052 -0.76082,0.42558 -1.23679,0.70014 -0.47597,0.27454 -1.07354,0.6106 -1.32791,0.74677 -0.25438,0.13617 -0.84362,0.4513 -1.30945,0.70027 -0.46581,0.24898 -1.11866,0.62501 -1.45075,0.83562 -0.3321,0.21061 -0.64752,0.38293 -0.70097,0.38293 -0.0534,0 -0.39069,0.18612 -0.74947,0.41361 -0.35878,0.22749 -1.15369,0.68215 -1.76646,1.01036 -1.82169,0.97572 -2.30234,1.23932 -3.34246,1.83313 -0.54469,0.31097 -1.29674,0.7276 -1.67122,0.92586 -0.61132,0.32363 -1.90329,1.03281 -3.46625,1.90265 -0.30639,0.17051 -0.7799,0.44047 -1.05225,0.5999 -0.27234,0.15945 -0.77371,0.43975 -1.11414,0.6229 -0.34043,0.18315 -0.92537,0.50672 -1.29984,0.71905 -0.8165,0.46297 -1.56273,0.49808 -2.59969,0.12233 z m -38.86165,-20.47764 c 0.006,-0.14422 0.0353,-0.17356 0.0748,-0.0748 0.0358,0.0894 0.0314,0.19614 -0.01,0.23728 -0.0411,0.0411 -0.0704,-0.032 -0.065,-0.16248 z m -49.80005,-9.92419 c -0.15539,-0.1799 -0.18137,-0.60949 -0.1532,-2.53307 0.0187,-1.27403 0.0697,-2.37425 0.11335,-2.44493 0.0511,-0.0826 1.06969,-0.12852 2.85313,-0.12852 2.61559,0 2.78102,0.0136 2.90187,0.23946 0.0744,0.13899 0.12815,1.15176 0.12815,2.41397 0,2.90048 0.26584,2.66973 -3.07568,2.66973 -2.30379,0 -2.60056,-0.0232 -2.76762,-0.21664 z"
       style="display:inline;fill:#020202;stroke-width:0.375001" />
    <path
       style="display:inline;fill:#074f9c;stroke-width:0.375"
       d="m -852.05209,623.29242 c 0,0 0.0626,-0.36247 -0.88934,5.33482 -0.43483,2.60226 -0.41344,2.85473 0.28027,3.30876 0.25132,0.16448 1.06972,0.52829 1.81868,0.80845 4.81496,1.80112 8.70182,3.56037 9.44169,4.27342 0.57862,0.55765 0.90937,1.91423 0.55349,2.27012 -0.19194,0.19194 -0.54591,0.20268 -4.174,0.12665 -2.18035,-0.0457 -4.38208,-0.13298 -4.89273,-0.19397 -0.51065,-0.061 -1.54686,-0.15031 -2.3027,-0.19849 -1.37424,-0.0876 -1.37424,-0.0876 -1.76962,0.26757 -0.38071,0.34198 -0.39974,0.40569 -0.51273,1.7169 -0.0645,0.74896 -0.1539,2.83798 -0.19858,4.64227 -0.0948,3.82813 0.0465,5.99257 0.58987,9.03697 0.44388,2.48687 0.87465,3.50174 1.86383,4.39111 0.71397,0.64192 2.19569,1.39372 3.51932,1.78565 1.50977,0.44704 1.55515,0.43297 3.15899,-0.97946 1.75479,-1.54537 2.67607,-2.13378 3.32682,-2.1248 1.50705,0.0208 2.63208,1.82826 2.11435,3.39694 -0.15998,0.48476 -1.15802,1.4885 -2.67038,2.68564 -2.10605,1.66711 -3.92973,2.56418 -5.94313,2.92347 -1.26551,0.22583 -2.05924,0.22367 -2.94882,-0.008 -2.04705,-0.53319 -3.58662,-1.97421 -7.30152,-6.83417 -0.80133,-1.04832 -1.71128,-2.9307 -2.17221,-4.49358 -0.69025,-2.34047 -0.99658,-5.8507 -0.77242,-8.85128 0.0763,-1.0213 0.22054,-2.9432 0.32055,-4.27089 0.1,-1.32769 0.18266,-2.73026 0.18368,-3.11681 0.003,-1.03137 -0.0894,-1.08677 -2.72162,-1.63664 -3.3907,-0.70832 -5.63743,-1.39436 -7.36574,-2.24914 -1.60187,-0.79225 -1.73554,-0.91482 -1.72162,-1.57862 0.0118,-0.56444 0.19796,-0.91324 0.9904,-1.85602 0.39244,-0.46692 0.55292,-1.03681 0.71383,-2.53506 0.0934,-0.86969 0.20715,-0.93325 1.49864,-0.83752 1.90291,0.14105 4.07441,0.43229 6.60889,0.88638 3.9186,0.70205 3.7151,0.67827 4.17167,0.48751 0.51123,-0.21361 0.56512,-0.40319 1.40886,-4.95716 0.12615,-0.68087 0.31607,-1.54433 0.42206,-1.9188 0.33094,-1.16933 0.48618,-2.19872 0.40048,-2.65552 5.4927,-8.60369 6.93722,-2.61371 4.97079,2.95332 z m 1.96643,-5.56704 c -0.80717,65.33913 -0.40358,32.66956 0,0 z"
       id="path4207"
       inkscape:connector-curvature="0"
       sodipodi:nodetypes="cssssssssssssssssssssssssssssssssssscccc" />
  </g>
</svg>
