<?xml version="1.0" encoding="UTF-8" standalone="no"?>
<svg
   xmlns:dc="http://purl.org/dc/elements/1.1/"
   xmlns:cc="http://creativecommons.org/ns#"
   xmlns:rdf="http://www.w3.org/1999/02/22-rdf-syntax-ns#"
   xmlns:svg="http://www.w3.org/2000/svg"
   xmlns="http://www.w3.org/2000/svg"
   xmlns:sodipodi="http://sodipodi.sourceforge.net/DTD/sodipodi-0.dtd"
   xmlns:inkscape="http://www.inkscape.org/namespaces/inkscape"
   sodipodi:docname="favicon-32x32.svg"
   inkscape:version="1.0 (4035a4fb49, 2020-05-01)"
   id="svg1024"
   version="1.1"
   viewBox="0 0 8.466667 8.4666664"
   height="32"
   width="32"
   inkscape:export-filename="/home/stefan/Dokumente/Stefan Eike Consulting/Website/stefaneike.com/static/img/favicon-32x32.png"
   inkscape:export-xdpi="96"
   inkscape:export-ydpi="96">
  <defs
     id="defs1018" />
  <sodipodi:namedview
     inkscape:window-maximized="1"
     inkscape:window-y="27"
     inkscape:window-x="0"
     inkscape:window-height="1376"
     inkscape:window-width="2560"
     showgrid="false"
     inkscape:document-rotation="0"
     inkscape:current-layer="layer1"
     inkscape:document-units="mm"
     inkscape:cy="15.594233"
     inkscape:cx="-3.659724"
     inkscape:zoom="20.474515"
     inkscape:pageshadow="2"
     inkscape:pageopacity="0.0"
     borderopacity="1.0"
     bordercolor="#666666"
     pagecolor="#ffffff"
     id="base"
     fit-margin-top="0"
     fit-margin-left="0"
     fit-margin-right="0"
     fit-margin-bottom="0"
     units="px" />
  <metadata
     id="metadata1021">
    <rdf:RDF>
      <cc:Work
         rdf:about="">
        <dc:format>image/svg+xml</dc:format>
        <dc:type
           rdf:resource="http://purl.org/dc/dcmitype/StillImage" />
        <dc:title></dc:title>
      </cc:Work>
    </rdf:RDF>
  </metadata>
  <g
     id="layer1"
     inkscape:groupmode="layer"
     inkscape:label="Ebene 1"
     transform="translate(-51.265131,-27.260923)">
    <path
       id="path78"
       style="fill:#2b394c;fill-opacity:1;fill-rule:nonzero;stroke:none;stroke-width:0.0163948"
       d="m 53.381249,35.150345 -2.116118,-3.666057 2.116118,-3.666054 h 4.233152 l 2.117397,3.666054 -2.117397,3.666057 h -4.233152" />
    <path
       id="path2070"
       d="m 56.694779,30.00052 c 0,0 -0.728904,-0.11994 -1.22253,-0.11994 -0.76581,0 -1.222528,0.202988 -1.222528,1.08413 0,0.645864 0.244506,0.885758 1.111808,1.019544 0.322934,0.05074 0.355226,0.05998 0.355226,0.12456 0,0.07382 -0.05536,0.1061 -0.239892,0.1061 -0.452104,0 -1.157944,-0.1015 -1.157944,-0.1015 l -0.04612,0.816558 c 0,0 0.64125,0.16608 1.300954,0.16608 0.788876,0 1.222528,-0.272186 1.222528,-1.061064 0,-0.72429 -0.258344,-0.839624 -1.139488,-1.037996 -0.295254,-0.06458 -0.327546,-0.08766 -0.327546,-0.15224 0,-0.06458 0.04614,-0.08304 0.235278,-0.08304 0.452106,0 1.102582,0.0692 1.102582,0.0692 z"
       style="font-variant:normal;font-weight:900;font-size:28.1388px;font-family:Titillium;-inkscape-font-specification:Titillium-Black;writing-mode:lr-tb;fill:#ffffff;fill-opacity:1;fill-rule:nonzero;stroke:none;stroke-width:0.163948" />
    <path
       d="m 53.381249,35.150345 -2.116118,-3.666057 2.116118,-3.666054 h 4.233152 l 2.117397,3.666054 -2.117397,3.666057 h -4.233152"
       style="fill:#2b394c;fill-opacity:1;fill-rule:nonzero;stroke:none;stroke-width:0.0163948"
       id="path1386" />
    <path
       style="font-variant:normal;font-weight:900;font-size:28.1388px;font-family:Titillium;-inkscape-font-specification:Titillium-Black;writing-mode:lr-tb;fill:#ffffff;fill-opacity:1;fill-rule:nonzero;stroke:none;stroke-width:0.28802"
       d="m 57.581545,28.8746 c 0,0 -1.280516,-0.210706 -2.147704,-0.210706 -1.345352,0 -2.1477,0.356602 -2.1477,1.904566 0,1.134636 0.42954,1.556074 1.95319,1.791106 0.567322,0.08914 0.624052,0.10538 0.624052,0.218822 0,0.12968 -0.09726,0.1864 -0.421436,0.1864 -0.794242,0 -2.034242,-0.17832 -2.034242,-0.17832 l -0.08102,1.434504 c 0,0 1.12653,0.291765 2.285478,0.291765 1.385874,0 2.147701,-0.478169 2.147701,-1.864045 0,-1.272412 -0.453851,-1.475028 -2.001819,-1.823522 -0.518694,-0.11346 -0.575424,-0.154 -0.575424,-0.26745 0,-0.11346 0.08106,-0.14588 0.41333,-0.14588 0.794246,0 1.936984,0.12156 1.936984,0.12156 z"
       id="path1388" />
  </g>
</svg>
