<?xml version="1.0" encoding="UTF-8" standalone="no"?>
<svg
   xmlns:dc="http://purl.org/dc/elements/1.1/"
   xmlns:cc="http://creativecommons.org/ns#"
   xmlns:rdf="http://www.w3.org/1999/02/22-rdf-syntax-ns#"
   xmlns:svg="http://www.w3.org/2000/svg"
   xmlns="http://www.w3.org/2000/svg"
   xmlns:sodipodi="http://sodipodi.sourceforge.net/DTD/sodipodi-0.dtd"
   xmlns:inkscape="http://www.inkscape.org/namespaces/inkscape"
   inkscape:export-ydpi="96"
   inkscape:export-xdpi="96"
   inkscape:export-filename="/home/stefan/Dokumente/Stefan Eike Consulting/Website/stefaneike.com/static/img/favicon-16x16.png"
   width="16"
   height="16"
   viewBox="0 0 4.2333335 4.2333332"
   version="1.1"
   id="svg1024"
   inkscape:version="1.0 (4035a4fb49, 2020-05-01)"
   sodipodi:docname="favicon-16x16.svg">
  <defs
     id="defs1018" />
  <sodipodi:namedview
     units="px"
     fit-margin-bottom="0"
     fit-margin-right="0"
     fit-margin-left="0"
     fit-margin-top="0"
     id="base"
     pagecolor="#ffffff"
     bordercolor="#666666"
     borderopacity="1.0"
     inkscape:pageopacity="0.0"
     inkscape:pageshadow="2"
     inkscape:zoom="20.474515"
     inkscape:cx="-3.659724"
     inkscape:cy="15.594233"
     inkscape:document-units="mm"
     inkscape:current-layer="layer1"
     inkscape:document-rotation="0"
     showgrid="false"
     inkscape:window-width="2560"
     inkscape:window-height="1376"
     inkscape:window-x="0"
     inkscape:window-y="27"
     inkscape:window-maximized="1" />
  <metadata
     id="metadata1021">
    <rdf:RDF>
      <cc:Work
         rdf:about="">
        <dc:format>image/svg+xml</dc:format>
        <dc:type
           rdf:resource="http://purl.org/dc/dcmitype/StillImage" />
        <dc:title></dc:title>
      </cc:Work>
    </rdf:RDF>
  </metadata>
  <g
     transform="translate(-51.265131,-27.260923)"
     inkscape:label="Ebene 1"
     inkscape:groupmode="layer"
     id="layer1">
    <path
       d="m 52.32319,31.215304 -1.058059,-1.833028 1.058059,-1.833027 h 2.116576 l 1.058698,1.833027 -1.058698,1.833028 H 52.32319"
       style="fill:#2b394c;fill-opacity:1;fill-rule:nonzero;stroke:none;stroke-width:0.00819741"
       id="path78" />
    <path
       style="font-variant:normal;font-weight:900;font-size:28.1388px;font-family:Titillium;-inkscape-font-specification:Titillium-Black;writing-mode:lr-tb;fill:#ffffff;fill-opacity:1;fill-rule:nonzero;stroke:none;stroke-width:0.0819741"
       d="m 53.979955,28.640392 c 0,0 -0.364452,-0.05997 -0.611265,-0.05997 -0.382905,0 -0.611264,0.101494 -0.611264,0.542065 0,0.322932 0.122253,0.442879 0.555904,0.509772 0.161467,0.02537 0.177613,0.02999 0.177613,0.06228 0,0.03691 -0.02768,0.05305 -0.119946,0.05305 -0.226052,0 -0.578972,-0.05075 -0.578972,-0.05075 l -0.02306,0.408279 c 0,0 0.320625,0.08304 0.650477,0.08304 0.394438,0 0.611264,-0.136093 0.611264,-0.530532 0,-0.362145 -0.129172,-0.419812 -0.569744,-0.518998 -0.147627,-0.03229 -0.163773,-0.04383 -0.163773,-0.07612 0,-0.03229 0.02307,-0.04152 0.117639,-0.04152 0.226053,0 0.551291,0.0346 0.551291,0.0346 z"
       id="path2070" />
    <path
       id="path1386"
       style="fill:#2b394c;fill-opacity:1;fill-rule:nonzero;stroke:none;stroke-width:0.00819741"
       d="m 52.32319,31.215304 -1.058059,-1.833028 1.058059,-1.833027 h 2.116576 l 1.058698,1.833027 -1.058698,1.833028 H 52.32319" />
    <path
       id="path1388"
       d="m 54.423338,28.077432 c 0,0 -0.640258,-0.105353 -1.073852,-0.105353 -0.672676,0 -1.07385,0.178301 -1.07385,0.952283 0,0.567318 0.21477,0.778037 0.976595,0.895553 0.283661,0.04457 0.312026,0.05269 0.312026,0.109411 0,0.06484 -0.04863,0.0932 -0.210718,0.0932 -0.397121,0 -1.017121,-0.08916 -1.017121,-0.08916 l -0.04051,0.717252 c 0,0 0.563265,0.145882 1.142739,0.145882 0.692937,0 1.07385,-0.239084 1.07385,-0.932022 0,-0.636206 -0.226925,-0.737514 -1.000909,-0.911761 -0.259347,-0.05673 -0.287712,-0.077 -0.287712,-0.133725 0,-0.05673 0.04053,-0.07294 0.206665,-0.07294 0.397123,0 0.968492,0.06078 0.968492,0.06078 z"
       style="font-variant:normal;font-weight:900;font-size:28.1388px;font-family:Titillium;-inkscape-font-specification:Titillium-Black;writing-mode:lr-tb;fill:#ffffff;fill-opacity:1;fill-rule:nonzero;stroke:none;stroke-width:0.14401" />
  </g>
</svg>
