<?xml version="1.0" encoding="UTF-8" standalone="no"?>
<svg
   xmlns:dc="http://purl.org/dc/elements/1.1/"
   xmlns:cc="http://creativecommons.org/ns#"
   xmlns:rdf="http://www.w3.org/1999/02/22-rdf-syntax-ns#"
   xmlns:svg="http://www.w3.org/2000/svg"
   xmlns="http://www.w3.org/2000/svg"
   xmlns:sodipodi="http://sodipodi.sourceforge.net/DTD/sodipodi-0.dtd"
   xmlns:inkscape="http://www.inkscape.org/namespaces/inkscape"
   sodipodi:docname="processes.svg"
   inkscape:version="1.0 (4035a4fb49, 2020-05-01)"
   id="svg996"
   version="1.1"
   viewBox="0 0 132.29166 132.29167"
   height="500"
   width="500">
  <defs
     id="defs990" />
  <sodipodi:namedview
     inkscape:window-maximized="1"
     inkscape:window-y="27"
     inkscape:window-x="0"
     inkscape:window-height="1016"
     inkscape:window-width="1920"
     units="px"
     showgrid="false"
     inkscape:document-rotation="0"
     inkscape:current-layer="layer1"
     inkscape:document-units="mm"
     inkscape:cy="4.8085929"
     inkscape:cx="-214.62796"
     inkscape:zoom="0.64695493"
     inkscape:pageshadow="2"
     inkscape:pageopacity="0.0"
     borderopacity="1.0"
     bordercolor="#666666"
     pagecolor="#ffffff"
     id="base" />
  <metadata
     id="metadata993">
    <rdf:RDF>
      <cc:Work
         rdf:about="">
        <dc:format>image/svg+xml</dc:format>
        <dc:type
           rdf:resource="http://purl.org/dc/dcmitype/StillImage" />
        <dc:title></dc:title>
      </cc:Work>
    </rdf:RDF>
  </metadata>
  <g
     id="layer1"
     inkscape:groupmode="layer"
     inkscape:label="Ebene 1">
    <g
       transform="scale(0.26241943)"
       id="g20">
      <polygon
         style="fill:#2a394c;fill-opacity:1"
         points="146.511,13.391 172.505,39.385 146.511,65.378 135.483,54.351 149.662,39.385 135.483,24.418 "
         id="polygon16" />
      <rect
         x="111.852"
         y="31.507999"
         style="fill:#2a394c;fill-opacity:1"
         width="48.837002"
         height="15.754"
         id="rect18" />
    </g>
    <rect
       x="52.503307"
       y="113.48145"
       style="fill:#45bf93;fill-opacity:1;stroke-width:0.262419"
       width="27.285059"
       height="16.743147"
       id="rect22" />
    <path
       style="fill:#2a394c;fill-opacity:1;stroke-width:0.262419"
       d="m 79.788365,132.29167 h -27.28506 c -1.240194,0 -2.067078,-0.82689 -2.067078,-2.06708 v -16.74315 c 0,-1.24019 0.826884,-2.06707 2.067078,-2.06707 h 27.28506 c 1.240195,0 2.067078,0.82688 2.067078,2.06707 v 16.74315 c 0,1.24019 -0.826883,2.06708 -2.067078,2.06708 z M 54.570383,128.15752 H 77.72155 v -12.609 H 54.570383 Z"
       id="path24" />
    <rect
       x="52.503307"
       y="85.576294"
       style="fill:#e0e4e8;stroke-width:0.262419"
       width="27.285059"
       height="16.743147"
       id="rect26" />
    <path
       style="fill:#2a394c;fill-opacity:1;stroke-width:0.262419"
       d="m 79.788365,104.38651 h -27.28506 c -1.240194,0 -2.067078,-0.82688 -2.067078,-2.06707 V 85.576288 c 0,-1.240194 0.826884,-2.067077 2.067078,-2.067077 h 27.28506 c 1.240195,0 2.067078,0.826883 2.067078,2.067077 v 16.743152 c 0,1.24019 -0.826883,2.06707 -2.067078,2.06707 z M 54.570383,100.25236 H 77.72155 V 87.643366 H 54.570383 Z"
       id="path28" />
    <rect
       x="52.503307"
       y="57.877655"
       style="fill:#45bf93;fill-opacity:1;stroke-width:0.262419"
       width="27.285059"
       height="16.743147"
       id="rect30" />
    <path
       style="fill:#2a394c;fill-opacity:1;stroke-width:0.262419"
       d="m 79.788365,76.481093 h -27.28506 c -1.240194,0 -2.067078,-0.826883 -2.067078,-2.067078 V 57.670869 c 0,-1.240195 0.826884,-2.067078 2.067078,-2.067078 h 27.28506 c 1.240195,0 2.067078,0.826883 2.067078,2.067078 v 16.743146 c 0,1.240195 -0.826883,2.067078 -2.067078,2.067078 z M 54.570383,72.346937 H 77.72155 V 59.737947 H 54.570383 Z"
       id="path32" />
    <rect
       x="52.503307"
       y="29.972235"
       style="fill:#e0e4e8;stroke-width:0.262419"
       width="27.285059"
       height="16.743147"
       id="rect34" />
    <path
       style="fill:#2a394c;fill-opacity:1;stroke-width:0.262419"
       d="m 79.788365,48.78246 h -27.28506 c -1.240194,0 -2.067078,-0.826883 -2.067078,-2.067078 V 29.972235 c 0,-1.240194 0.826884,-2.067078 2.067078,-2.067078 h 27.28506 c 1.240195,0 2.067078,0.826884 2.067078,2.067078 v 16.743147 c 0,1.033671 -0.826883,2.067078 -2.067078,2.067078 z M 54.570383,44.648566 H 77.72155 V 32.039576 H 54.570383 Z"
       id="path36" />
    <rect
       x="52.503307"
       y="2.0670755"
       style="fill:#45bf93;fill-opacity:1;stroke-width:0.262419"
       width="27.285059"
       height="16.743147"
       id="rect38" />
    <g
       transform="scale(0.26241943)"
       id="g62">
      <path
         style="fill:#2a394c;fill-opacity:1"
         d="M 304.049,79.557 H 200.074 c -4.726,0 -7.877,-3.151 -7.877,-7.877 V 7.877 C 192.197,3.151 195.348,0 200.074,0 h 103.975 c 4.726,0 7.877,3.151 7.877,7.877 V 71.68 c 0,3.938 -3.151,7.877 -7.877,7.877 z M 207.951,63.803 h 88.222 V 15.754 h -88.222 z"
         id="path40" />
      <polygon
         style="fill:#2a394c;fill-opacity:1"
         points="338.708,436.382 363.914,462.375 338.708,487.582 327.68,476.554 341.858,462.375 327.68,447.409 "
         id="polygon42" />
      <rect
         x="304.04901"
         y="454.49799"
         style="fill:#2a394c;fill-opacity:1"
         width="48.837002"
         height="15.754"
         id="rect44" />
      <polygon
         style="fill:#2a394c;fill-opacity:1"
         points="152.812,432.443 178.018,458.437 152.812,484.431 140.997,473.403 155.963,458.437 140.997,443.471 "
         id="polygon46" />
      <path
         style="fill:#2a394c;fill-opacity:1"
         d="m 166.203,466.314 h -102.4 c -32.295,0 -58.289,-25.994 -58.289,-58.289 0,-32.295 26.782,-57.502 59.077,-57.502 h 135.483 v 15.754 H 64.591 c -23.631,0 -42.535,18.905 -42.535,42.535 0,23.63 18.905,42.535 42.535,42.535 h 102.4 v 14.966 h -0.788 z"
         id="path48" />
      <polygon
         style="fill:#2a394c;fill-opacity:1"
         points="152.812,220.554 178.018,246.548 152.812,271.754 140.997,260.726 155.963,246.548 140.997,231.582 "
         id="polygon50" />
      <path
         style="fill:#2a394c;fill-opacity:1"
         d="m 166.203,254.425 h -102.4 c -32.295,0 -58.289,-25.994 -58.289,-58.289 0,-32.295 26.782,-58.289 59.077,-58.289 H 200.074 V 153.6 H 64.591 c -23.631,0 -42.535,18.905 -42.535,42.535 0,23.63 18.905,42.535 42.535,42.535 h 102.4 v 15.754 h -0.788 z"
         id="path52" />
      <polygon
         style="fill:#2a394c;fill-opacity:1"
         points="348.16,356.037 363.126,371.003 351.311,382.031 326.105,356.037 351.311,330.831 363.126,341.858 "
         id="polygon54" />
      <path
         style="fill:#2a394c;fill-opacity:1"
         d="m 439.532,363.914 h -102.4 V 348.16 h 102.4 c 23.631,0 42.535,-18.905 42.535,-42.535 v -3.938 c 0,-23.631 -18.905,-42.535 -42.535,-42.535 H 304.049 v -15.754 h 135.483 c 32.295,0 58.289,25.994 58.289,58.289 v 3.938 c 10e-4,32.295 -25.993,58.289 -58.289,58.289 z"
         id="path56" />
      <polygon
         style="fill:#2a394c;fill-opacity:1"
         points="348.16,144.148 363.126,159.114 351.311,170.142 326.105,144.148 351.311,118.154 363.126,129.182 "
         id="polygon58" />
      <path
         style="fill:#2a394c;fill-opacity:1"
         d="m 439.532,152.025 h -102.4 v -15.754 h 102.4 c 23.631,0 42.535,-18.905 42.535,-42.535 v -3.938 c 0,-23.631 -18.905,-42.535 -42.535,-42.535 H 304.049 V 31.508 h 135.483 c 32.295,0 58.289,25.994 58.289,58.289 v 3.938 c 10e-4,32.296 -25.993,58.29 -58.289,58.29 z"
         id="path60" />
    </g>
    <rect
       x="102.93953"
       y="113.48145"
       style="fill:#e73062;fill-opacity:1;stroke-width:0.262419"
       width="27.285059"
       height="16.743147"
       id="rect64" />
    <path
       style="fill:#2a394c;fill-opacity:1;stroke-width:0.262419"
       d="m 130.22459,132.29167 h -27.28506 c -1.24019,0 -2.06707,-0.82689 -2.06707,-2.06708 v -16.74315 c 0,-1.24019 0.82688,-2.06707 2.06707,-2.06707 h 27.28506 c 1.24019,0 2.06708,0.82688 2.06708,2.06707 v 16.74315 c 0,1.24019 -0.82689,2.06708 -2.06708,2.06708 z m -25.21798,-4.13415 h 23.15117 v -12.609 h -23.15117 z"
       id="path66" />
    <rect
       x="2.0670807"
       y="2.0670755"
       style="fill:#e73062;fill-opacity:1;stroke-width:0.262419"
       width="27.285059"
       height="16.743147"
       id="rect68" />
    <path
       style="fill:#2a394c;fill-opacity:1;stroke-width:0.262419"
       d="M 29.352138,20.877302 H 2.067078 C 0.826884,20.877302 0,20.050419 0,18.810224 V 2.067078 C 0,0.826884 0.826884,0 2.067078,0 h 27.28506 c 1.240194,0 2.067078,0.826884 2.067078,2.067078 v 16.743146 c 0,1.033408 -0.826884,2.067078 -2.067078,2.067078 z M 4.134156,16.743146 H 27.285323 V 4.134156 H 4.134156 Z"
       id="path70" />
    <g
       transform="scale(0.26241943)"
       id="g72" />
    <g
       transform="scale(0.26241943)"
       id="g74" />
    <g
       transform="scale(0.26241943)"
       id="g76" />
    <g
       transform="scale(0.26241943)"
       id="g78" />
    <g
       transform="scale(0.26241943)"
       id="g80" />
    <g
       transform="scale(0.26241943)"
       id="g82" />
    <g
       transform="scale(0.26241943)"
       id="g84" />
    <g
       transform="scale(0.26241943)"
       id="g86" />
    <g
       transform="scale(0.26241943)"
       id="g88" />
    <g
       transform="scale(0.26241943)"
       id="g90" />
    <g
       transform="scale(0.26241943)"
       id="g92" />
    <g
       transform="scale(0.26241943)"
       id="g94" />
    <g
       transform="scale(0.26241943)"
       id="g96" />
    <g
       transform="scale(0.26241943)"
       id="g98" />
    <g
       transform="scale(0.26241943)"
       id="g100" />
  </g>
</svg>
