<?xml version="1.0" encoding="UTF-8" standalone="no"?>
<svg
   xmlns:dc="http://purl.org/dc/elements/1.1/"
   xmlns:cc="http://creativecommons.org/ns#"
   xmlns:rdf="http://www.w3.org/1999/02/22-rdf-syntax-ns#"
   xmlns:svg="http://www.w3.org/2000/svg"
   xmlns="http://www.w3.org/2000/svg"
   xmlns:sodipodi="http://sodipodi.sourceforge.net/DTD/sodipodi-0.dtd"
   xmlns:inkscape="http://www.inkscape.org/namespaces/inkscape"
   width="18.218222mm"
   height="15.776929mm"
   viewBox="0 0 18.218222 15.776929"
   version="1.1"
   id="svg1024"
   inkscape:version="1.0 (4035a4fb49, 2020-05-01)"
   sodipodi:docname="stefaneike-logo-new.svg">
  <defs
     id="defs1018" />
  <sodipodi:namedview
     fit-margin-bottom="0"
     fit-margin-right="0"
     fit-margin-left="0"
     fit-margin-top="0"
     id="base"
     pagecolor="#ffffff"
     bordercolor="#666666"
     borderopacity="1.0"
     inkscape:pageopacity="0.0"
     inkscape:pageshadow="2"
     inkscape:zoom="1.2796572"
     inkscape:cx="8.6403046"
     inkscape:cy="5.5838602"
     inkscape:document-units="mm"
     inkscape:current-layer="layer1"
     inkscape:document-rotation="0"
     showgrid="false"
     inkscape:window-width="1920"
     inkscape:window-height="1016"
     inkscape:window-x="0"
     inkscape:window-y="27"
     inkscape:window-maximized="1" />
  <metadata
     id="metadata1021">
    <rdf:RDF>
      <cc:Work
         rdf:about="">
        <dc:format>image/svg+xml</dc:format>
        <dc:type
           rdf:resource="http://purl.org/dc/dcmitype/StillImage" />
        <dc:title></dc:title>
      </cc:Work>
    </rdf:RDF>
  </metadata>
  <g
     transform="translate(-51.265131,-27.260923)"
     inkscape:label="Ebene 1"
     inkscape:groupmode="layer"
     id="layer1">
    <path
       d="m 55.818504,43.037852 -4.553373,-7.888465 4.553373,-7.888464 h 9.108723 l 4.556125,7.888464 -4.556125,7.888465 h -9.108723"
       style="fill:#2b394c;fill-opacity:1;fill-rule:nonzero;stroke:none;stroke-width:0.0352777"
       id="path78" />
    <path
       style="font-variant:normal;font-weight:900;font-size:28.1388px;font-family:Titillium;-inkscape-font-specification:Titillium-Black;writing-mode:lr-tb;fill:#ffffff;fill-opacity:1;fill-rule:nonzero;stroke:none;stroke-width:0.352777"
       d="m 62.948422,31.956674 c 0,0 -1.568425,-0.258096 -2.63059,-0.258096 -1.647839,0 -2.630586,0.436778 -2.630586,2.332786 0,1.389743 0.526119,1.905935 2.392345,2.193812 0.694874,0.109192 0.764361,0.129046 0.764361,0.268019 0,0.158828 -0.11912,0.228318 -0.516192,0.228318 -0.97282,0 -2.491613,-0.21839 -2.491613,-0.21839 l -0.09926,1.757034 c 0,0 1.379815,0.357364 2.79934,0.357364 1.697472,0 2.630586,-0.585678 2.630586,-2.283153 0,-1.558498 -0.555896,-1.806667 -2.451903,-2.233518 -0.635315,-0.138973 -0.704802,-0.188605 -0.704802,-0.327582 0,-0.138973 0.09927,-0.178682 0.506265,-0.178682 0.97282,0 2.37249,0.148904 2.37249,0.148904 z"
       id="path2070" />
    <path
       id="path1386"
       style="fill:#2b394c;fill-opacity:1;fill-rule:nonzero;stroke:none;stroke-width:0.0352777"
       d="m 55.818504,43.037852 -4.553373,-7.888465 4.553373,-7.888464 h 9.108723 l 4.556125,7.888464 -4.556125,7.888465 h -9.108723" />
    <path
       id="path1388"
       d="m 62.948422,31.956674 c 0,0 -1.568425,-0.258096 -2.63059,-0.258096 -1.647839,0 -2.630586,0.436778 -2.630586,2.332786 0,1.389743 0.526119,1.905935 2.392345,2.193812 0.694874,0.109192 0.764361,0.129046 0.764361,0.268019 0,0.158828 -0.11912,0.228318 -0.516192,0.228318 -0.97282,0 -2.491613,-0.21839 -2.491613,-0.21839 l -0.09926,1.757034 c 0,0 1.379815,0.357364 2.79934,0.357364 1.697472,0 2.630586,-0.585678 2.630586,-2.283153 0,-1.558498 -0.555896,-1.806667 -2.451903,-2.233518 -0.635315,-0.138973 -0.704802,-0.188605 -0.704802,-0.327582 0,-0.138973 0.09927,-0.178682 0.506265,-0.178682 0.97282,0 2.37249,0.148904 2.37249,0.148904 z"
       style="font-variant:normal;font-weight:900;font-size:28.1388px;font-family:Titillium;-inkscape-font-specification:Titillium-Black;writing-mode:lr-tb;fill:#ffffff;fill-opacity:1;fill-rule:nonzero;stroke:none;stroke-width:0.352777" />
  </g>
</svg>
