<?xml version="1.0" encoding="UTF-8" standalone="no"?>
<svg
   xmlns:dc="http://purl.org/dc/elements/1.1/"
   xmlns:cc="http://creativecommons.org/ns#"
   xmlns:rdf="http://www.w3.org/1999/02/22-rdf-syntax-ns#"
   xmlns:svg="http://www.w3.org/2000/svg"
   xmlns="http://www.w3.org/2000/svg"
   xmlns:sodipodi="http://sodipodi.sourceforge.net/DTD/sodipodi-0.dtd"
   xmlns:inkscape="http://www.inkscape.org/namespaces/inkscape"
   inkscape:export-ydpi="36.48"
   inkscape:export-xdpi="36.48"
   inkscape:export-filename="/home/stefan/Dokumente/Stefan Eike Consulting/Website/stefaneike.com/static/img/processes.png"
   sodipodi:docname="processes.svg"
   inkscape:version="1.0 (4035a4fb49, 2020-05-01)"
   id="svg996"
   version="1.1"
   viewBox="0 0 63.499997 50.270835"
   height="190"
   width="240">
  <defs
     id="defs990" />
  <sodipodi:namedview
     inkscape:window-maximized="1"
     inkscape:window-y="27"
     inkscape:window-x="0"
     inkscape:window-height="1016"
     inkscape:window-width="1920"
     units="px"
     showgrid="false"
     inkscape:document-rotation="0"
     inkscape:current-layer="layer1"
     inkscape:document-units="mm"
     inkscape:cy="51.885247"
     inkscape:cx="-28.163926"
     inkscape:zoom="1.7714773"
     inkscape:pageshadow="2"
     inkscape:pageopacity="0.0"
     borderopacity="1.0"
     bordercolor="#666666"
     pagecolor="#ffffff"
     id="base" />
  <metadata
     id="metadata993">
    <rdf:RDF>
      <cc:Work
         rdf:about="">
        <dc:format>image/svg+xml</dc:format>
        <dc:type
           rdf:resource="http://purl.org/dc/dcmitype/StillImage" />
        <dc:title></dc:title>
      </cc:Work>
    </rdf:RDF>
  </metadata>
  <g
     id="layer1"
     inkscape:groupmode="layer"
     inkscape:label="Ebene 1">
    <g
       transform="matrix(0.09971938,0,0,0.09971938,6.3500003,0)"
       id="g20">
      <polygon
         style="fill:#2a394c;fill-opacity:1"
         points="146.511,13.391 172.505,39.385 146.511,65.378 135.483,54.351 149.662,39.385 135.483,24.418 "
         id="polygon16" />
      <rect
         x="111.852"
         y="31.507999"
         style="fill:#2a394c;fill-opacity:1"
         width="48.837002"
         height="15.754"
         id="rect18" />
    </g>
    <rect
       x="26.301264"
       y="43.122952"
       style="fill:#45bf93;fill-opacity:1;stroke-width:0.0997191"
       width="10.368322"
       height="6.3623958"
       id="rect22" />
    <path
       style="fill:#2a394c;fill-opacity:1;stroke-width:0.0997191"
       d="M 36.669582,50.270833 H 26.30126 c -0.471274,0 -0.785491,-0.314218 -0.785491,-0.78549 v -6.362397 c 0,-0.471272 0.314217,-0.785487 0.785491,-0.785487 h 10.368322 c 0.471274,0 0.78549,0.314215 0.78549,0.785487 v 6.362397 c 0,0.471272 -0.314216,0.78549 -0.78549,0.78549 z m -9.582833,-1.570977 h 8.797443 v -4.79142 h -8.797443 z"
       id="path24" />
    <rect
       x="26.301264"
       y="32.51899"
       style="fill:#e0e4e8;stroke-width:0.0997191"
       width="10.368322"
       height="6.3623958"
       id="rect26" />
    <path
       style="fill:#2a394c;fill-opacity:1;stroke-width:0.0997191"
       d="M 36.669582,39.666873 H 26.30126 c -0.471274,0 -0.785491,-0.314215 -0.785491,-0.785487 v -6.362398 c 0,-0.471273 0.314217,-0.785489 0.785491,-0.785489 h 10.368322 c 0.471274,0 0.78549,0.314216 0.78549,0.785489 v 6.362398 c 0,0.471272 -0.314216,0.785487 -0.78549,0.785487 z m -9.582833,-1.570977 h 8.797443 v -4.791417 h -8.797443 z"
       id="path28" />
    <rect
       x="26.301264"
       y="21.993507"
       style="fill:#45bf93;fill-opacity:1;stroke-width:0.0997191"
       width="10.368322"
       height="6.3623958"
       id="rect30" />
    <path
       style="fill:#2a394c;fill-opacity:1;stroke-width:0.0997191"
       d="M 36.669582,29.062815 H 26.30126 c -0.471274,0 -0.785491,-0.314216 -0.785491,-0.78549 v -6.362396 c 0,-0.471273 0.314217,-0.785489 0.785491,-0.785489 h 10.368322 c 0.471274,0 0.78549,0.314216 0.78549,0.785489 v 6.362396 c 0,0.471274 -0.314216,0.78549 -0.78549,0.78549 z m -9.582833,-1.57098 h 8.797443 v -4.791416 h -8.797443 z"
       id="path32" />
    <rect
       x="26.301264"
       y="11.389449"
       style="fill:#e0e4e8;stroke-width:0.0997191"
       width="10.368322"
       height="6.3623958"
       id="rect34" />
    <path
       style="fill:#2a394c;fill-opacity:1;stroke-width:0.0997191"
       d="M 36.669582,18.537334 H 26.30126 c -0.471274,0 -0.785491,-0.314216 -0.785491,-0.785489 v -6.362396 c 0,-0.471274 0.314217,-0.78549 0.785491,-0.78549 h 10.368322 c 0.471274,0 0.78549,0.314216 0.78549,0.78549 v 6.362396 c 0,0.392795 -0.314216,0.785489 -0.78549,0.785489 z m -9.582833,-1.570879 h 8.797443 v -4.791417 h -8.797443 z"
       id="path36" />
    <rect
       x="26.301264"
       y="0.78548867"
       style="fill:#45bf93;fill-opacity:1;stroke-width:0.0997191"
       width="10.368322"
       height="6.3623958"
       id="rect38" />
    <g
       transform="matrix(0.09971938,0,0,0.09971938,6.3500003,0)"
       id="g62">
      <path
         style="fill:#2a394c;fill-opacity:1"
         d="M 304.049,79.557 H 200.074 c -4.726,0 -7.877,-3.151 -7.877,-7.877 V 7.877 C 192.197,3.151 195.348,0 200.074,0 h 103.975 c 4.726,0 7.877,3.151 7.877,7.877 V 71.68 c 0,3.938 -3.151,7.877 -7.877,7.877 z M 207.951,63.803 h 88.222 V 15.754 h -88.222 z"
         id="path40" />
      <polygon
         style="fill:#2a394c;fill-opacity:1"
         points="338.708,436.382 363.914,462.375 338.708,487.582 327.68,476.554 341.858,462.375 327.68,447.409 "
         id="polygon42" />
      <rect
         x="304.04901"
         y="454.49799"
         style="fill:#2a394c;fill-opacity:1"
         width="48.837002"
         height="15.754"
         id="rect44" />
      <polygon
         style="fill:#2a394c;fill-opacity:1"
         points="152.812,432.443 178.018,458.437 152.812,484.431 140.997,473.403 155.963,458.437 140.997,443.471 "
         id="polygon46" />
      <path
         style="fill:#2a394c;fill-opacity:1"
         d="m 166.203,466.314 h -102.4 c -32.295,0 -58.289,-25.994 -58.289,-58.289 0,-32.295 26.782,-57.502 59.077,-57.502 h 135.483 v 15.754 H 64.591 c -23.631,0 -42.535,18.905 -42.535,42.535 0,23.63 18.905,42.535 42.535,42.535 h 102.4 v 14.966 h -0.788 z"
         id="path48" />
      <polygon
         style="fill:#2a394c;fill-opacity:1"
         points="152.812,220.554 178.018,246.548 152.812,271.754 140.997,260.726 155.963,246.548 140.997,231.582 "
         id="polygon50" />
      <path
         style="fill:#2a394c;fill-opacity:1"
         d="m 166.203,254.425 h -102.4 c -32.295,0 -58.289,-25.994 -58.289,-58.289 0,-32.295 26.782,-58.289 59.077,-58.289 H 200.074 V 153.6 H 64.591 c -23.631,0 -42.535,18.905 -42.535,42.535 0,23.63 18.905,42.535 42.535,42.535 h 102.4 v 15.754 h -0.788 z"
         id="path52" />
      <polygon
         style="fill:#2a394c;fill-opacity:1"
         points="348.16,356.037 363.126,371.003 351.311,382.031 326.105,356.037 351.311,330.831 363.126,341.858 "
         id="polygon54" />
      <path
         style="fill:#2a394c;fill-opacity:1"
         d="m 439.532,363.914 h -102.4 V 348.16 h 102.4 c 23.631,0 42.535,-18.905 42.535,-42.535 v -3.938 c 0,-23.631 -18.905,-42.535 -42.535,-42.535 H 304.049 v -15.754 h 135.483 c 32.295,0 58.289,25.994 58.289,58.289 v 3.938 c 10e-4,32.295 -25.993,58.289 -58.289,58.289 z"
         id="path56" />
      <polygon
         style="fill:#2a394c;fill-opacity:1"
         points="348.16,144.148 363.126,159.114 351.311,170.142 326.105,144.148 351.311,118.154 363.126,129.182 "
         id="polygon58" />
      <path
         style="fill:#2a394c;fill-opacity:1"
         d="m 439.532,152.025 h -102.4 v -15.754 h 102.4 c 23.631,0 42.535,-18.905 42.535,-42.535 v -3.938 c 0,-23.631 -18.905,-42.535 -42.535,-42.535 H 304.049 V 31.508 h 135.483 c 32.295,0 58.289,25.994 58.289,58.289 v 3.938 c 10e-4,32.296 -25.993,58.29 -58.289,58.29 z"
         id="path60" />
    </g>
    <rect
       x="45.467026"
       y="43.122952"
       style="fill:#e73062;fill-opacity:1;stroke-width:0.0997191"
       width="10.368322"
       height="6.3623958"
       id="rect64" />
    <path
       style="fill:#2a394c;fill-opacity:1;stroke-width:0.0997191"
       d="M 55.835347,50.270833 H 45.467024 c -0.471272,0 -0.785486,-0.314218 -0.785486,-0.78549 v -6.362397 c 0,-0.471272 0.314214,-0.785487 0.785486,-0.785487 h 10.368323 c 0.471272,0 0.78549,0.314215 0.78549,0.785487 v 6.362397 c 0,0.471272 -0.314218,0.78549 -0.78549,0.78549 z m -9.582832,-1.570977 h 8.797444 v -4.79142 h -8.797444 z"
       id="path66" />
    <rect
       x="7.1354909"
       y="0.78548867"
       style="fill:#e73062;fill-opacity:1;stroke-width:0.0997191"
       width="10.368322"
       height="6.3623958"
       id="rect68" />
    <path
       style="fill:#2a394c;fill-opacity:1;stroke-width:0.0997191"
       d="M 17.503816,7.9333748 H 7.13549 c -0.4712738,0 -0.7854897,-0.3142158 -0.7854897,-0.7854899 V 0.78548962 C 6.3500003,0.31421591 6.6642162,0 7.13549,0 h 10.368326 c 0.471274,0 0.78549,0.31421591 0.78549,0.78548962 V 7.1478849 c 0,0.3926951 -0.314216,0.7854899 -0.78549,0.7854899 z M 7.9209796,6.3623953 H 16.718427 V 1.5709792 H 7.9209796 Z"
       id="path70" />
    <g
       transform="matrix(0.09971938,0,0,0.09971938,6.3500003,0)"
       id="g72" />
    <g
       transform="matrix(0.09971938,0,0,0.09971938,6.3500003,0)"
       id="g74" />
    <g
       transform="matrix(0.09971938,0,0,0.09971938,6.3500003,0)"
       id="g76" />
    <g
       transform="matrix(0.09971938,0,0,0.09971938,6.3500003,0)"
       id="g78" />
    <g
       transform="matrix(0.09971938,0,0,0.09971938,6.3500003,0)"
       id="g80" />
    <g
       transform="matrix(0.09971938,0,0,0.09971938,6.3500003,0)"
       id="g82" />
    <g
       transform="matrix(0.09971938,0,0,0.09971938,6.3500003,0)"
       id="g84" />
    <g
       transform="matrix(0.09971938,0,0,0.09971938,6.3500003,0)"
       id="g86" />
    <g
       transform="matrix(0.09971938,0,0,0.09971938,6.3500003,0)"
       id="g88" />
    <g
       transform="matrix(0.09971938,0,0,0.09971938,6.3500003,0)"
       id="g90" />
    <g
       transform="matrix(0.09971938,0,0,0.09971938,6.3500003,0)"
       id="g92" />
    <g
       transform="matrix(0.09971938,0,0,0.09971938,6.3500003,0)"
       id="g94" />
    <g
       transform="matrix(0.09971938,0,0,0.09971938,6.3500003,0)"
       id="g96" />
    <g
       transform="matrix(0.09971938,0,0,0.09971938,6.3500003,0)"
       id="g98" />
    <g
       transform="matrix(0.09971938,0,0,0.09971938,6.3500003,0)"
       id="g100" />
  </g>
</svg>
